<?xml version="1.0" encoding="UTF-8" standalone="no"?>
<!-- Created with Inkscape (http://www.inkscape.org/) -->

<svg
   xmlns:dc="http://purl.org/dc/elements/1.1/"
   xmlns:cc="http://creativecommons.org/ns#"
   xmlns:rdf="http://www.w3.org/1999/02/22-rdf-syntax-ns#"
   xmlns:svg="http://www.w3.org/2000/svg"
   xmlns="http://www.w3.org/2000/svg"
   xmlns:sodipodi="http://sodipodi.sourceforge.net/DTD/sodipodi-0.dtd"
   xmlns:inkscape="http://www.inkscape.org/namespaces/inkscape"
   version="1.1"
   id="svg2"
   xml:space="preserve"
   width="5120"
   height="2880"
   viewBox="0 0 5120 2880"
   sodipodi:docname="logo.svg"
   inkscape:version="0.92.1 r"><metadata
     id="metadata8"><rdf:RDF><cc:Work
         rdf:about=""><dc:format>image/svg+xml</dc:format><dc:type
           rdf:resource="http://purl.org/dc/dcmitype/StillImage" /><dc:title></dc:title></cc:Work></rdf:RDF></metadata><defs
     id="defs6" /><sodipodi:namedview
     pagecolor="#ffffff"
     bordercolor="#666666"
     borderopacity="1"
     objecttolerance="10"
     gridtolerance="10"
     guidetolerance="10"
     inkscape:pageopacity="0"
     inkscape:pageshadow="2"
     inkscape:window-width="1600"
     inkscape:window-height="875"
     id="namedview4"
     showgrid="false"
     inkscape:measure-start="0,0"
     inkscape:measure-end="0,0"
     inkscape:zoom="0.16628058"
     inkscape:cx="2763.466"
     inkscape:cy="1177.446"
     inkscape:window-x="0"
     inkscape:window-y="0"
     inkscape:window-maximized="0"
     inkscape:current-layer="g10" /><g
     id="g10"
     inkscape:groupmode="layer"
     inkscape:label="PdB_LOGO"
     transform="matrix(1.3333333,0,0,-1.3333333,0,2880)"><g
       id="g12"
       transform="translate(2286.3145,445.5244)" /><g
       id="g14"
       transform="translate(2568.7109,1135.6914)"><path
         d="m 0,0 -0.161,0.279 266.45,153.836 v 84.149 l -0.032,-0.018 V 425.267 L 193.058,383.006 V 195.984 L -205.353,-34.038 v -43.306 l 398.411,-230.022 v -234.33 l -841.785,-486.006 -841.785,486.006 v 286.512 l 0.108,0.063 v 84.522 l -0.108,-0.062 v 600.974 l 634.737,366.467 23.005,13.282 V 707.087 209.086 l -584.435,-337.424 v -84.089 l 657.634,379.686 v 540.779 144.285 84.522 l -96.204,-55.544 -707.936,-408.727 V -583.957 l 914.984,-528.267 914.984,528.267 v 234.33 l 0.032,-0.019 v 84.522 L -96.459,-55.691 Z"
         style="fill:#000000;fill-opacity:1;fill-rule:nonzero;stroke:none"
         id="path16"
         inkscape:connector-curvature="0" /></g><g
       id="g18"
       transform="translate(1883.3843,297.4248)"><path
         d="m 0,0 -659.431,380.723 v 117.73 L 0,879.176 Z M 1.046,963.265 -628.189,601.013 -731.878,541.147 V 338.895 L 36.6,-104.787 73.199,-83.656 v 1688.149 128.962 l 126.529,-73.052 646.429,-373.215 73.198,42.261 L 199.728,1744.925 36.6,1839.107 1.046,1818.58 Z"
         style="fill:#000000;fill-opacity:1;fill-rule:nonzero;stroke:none"
         id="path20"
         inkscape:connector-curvature="0" /></g></g></svg>